<svg version="1.2" xmlns="http://www.w3.org/2000/svg" viewBox="0 0 1450 350" width="1450" height="350">
	<title>Proyecto nuevo</title>
	<style>
		.s0 { fill: #ffffff } 
	</style>
	<g id="Layer 1">
		<path id="vALORANT GUESS THE PLACE" class="s0" aria-label="vALORANT
GUESS THE PLACE"  d="m320.6 19.7h16.5q0.8 0 1.4 0.6 0.7 0.5 0.7 1.3v75.5l57.4-74.9q2.1-2.5 5.3-2.5h20.3q1 0 1.3 0.8 0.5 0.8 0 1.4l-82.4 107.2q-2.1 2.6-5.3 2.6h-15.2q-0.8 0-1.4-0.5-0.5-0.6-0.5-1.4v-108.2q0-0.8 0.5-1.3 0.6-0.6 1.4-0.6zm50.8 110.1l82.3-107.2q2.1-2.6 5.3-2.6h15.2q1.9 0 1.9 1.9v108.2q0 1.9-1.9 1.9h-15.2q-3.2 0-5.3-2.6l-27.7-36.1-27.8 36.1q-2.1 2.6-5.3 2.6h-20.3q-0.8 0-1.3-0.6-0.5-0.8 0.1-1.6zm84.4-75.2l-16.5 21.4 16.5 21.4zm44.8-34.5h16.5q2.1 0 2.1 1.9v89.8h44.8q0.9 0 1.2 0.8 0.5 0.8 0 1.4l-12 15.5q-2 2.6-5.1 2.6h-47.5q-0.8 0-1.4-0.5-0.5-0.6-0.5-1.4v-108.2q0-0.8 0.5-1.3 0.6-0.6 1.4-0.6zm72.6 55.5q0-12.3 4.5-22.9 4.6-10.7 12.3-18.4 7.8-7.8 18.4-12.1 10.6-4.5 22.7-4.4 12.2 0.2 22.7 4.8 10.6 4.7 18.3 12.7 7.8 8 12.3 18.7 4.5 10.6 4.3 22.6-0.1 12.1-4.8 22.7-4.6 10.5-12.6 18.4-7.9 7.8-18.4 12.3-10.6 4.3-22.7 4.3-12 0-22.6-4.5-10.4-4.6-18.1-12.4-7.7-8-12-18.8-4.3-10.7-4.3-23zm20.5 0.8q0 7.8 3 14.9 3.1 7 8.2 12.3 5.1 5.3 11.8 8.3 6.7 3.1 14.4 3.1 7.5-0.2 14.3-3.4 6.7-3.2 11.6-8.5 5.2-5.4 8-12.5 2.9-7.2 2.8-15 0-7.8-3.1-14.9-3-7-8.1-12.1-5.2-5.3-12-8.4-6.8-3-14.3-3-7.5 0.2-14.2 3.4-6.7 3-11.7 8.4-5 5.3-7.8 12.4-2.9 7-2.9 15zm114 53.4v-108.1q0-0.8 0.5-1.3 0.6-0.6 1.4-0.6h84.5q0.8 0 1.3 0.6 0.6 0.5 0.6 1.3v23.5q0 2.2-1.4 4l-25.3 33.1 36.1 47.2q0.5 0.8 0 1.6-0.3 0.7-1.1 0.7h-20.3q-3.2 0-5.3-2.6l-35-45.6q-1.1-1.3 0-2.4l31.5-41.1h-47v89.7q0 2-2.1 2h-16.5q-0.8 0-1.4-0.5-0.5-0.7-0.5-1.5zm100.7 0l82.3-107.2q2.1-2.5 5.3-2.5h15.2q1.9 0 1.9 1.9v108.2q0 1.9-1.9 1.9h-15.2q-3.2 0-5.3-2.6l-27.7-36.1-27.8 36.1q-2.1 2.6-5.3 2.6h-20.3q-0.8 0-1.3-0.7-0.5-0.8 0.1-1.6zm84.4-75.2l-16.5 21.5 16.5 21.4zm42.9 75.5v-108.1q0-0.8 0.5-1.3 0.6-0.6 1.4-0.6h15.2q3.2 0 5.3 2.5l57.6 74.9v-75.5q0-1.9 1.9-1.9h16.5q1.9 0 1.9 1.9v108.1q0 2-1.9 2h-15.2q-3.2 0-5.3-2.6l-57.4-74.9v75.5q0 2-2.1 2h-16.5q-0.8 0-1.4-0.5-0.5-0.7-0.5-1.5zm117.4-92v-16.4q0-0.8 0.5-1.3 0.6-0.7 1.4-0.7h69.4q3.2 0 5.3 2.6l11.9 15.5q0.6 0.8 0.1 1.6-0.3 0.7-1.3 0.7h-35.6v89.7q0 1.9-2 1.9h-16.4q-2 0-2-1.9v-89.7h-29.4q-0.8 0-1.4-0.5-0.5-0.7-0.5-1.5zm-1039.9 229.5q0-12.3 4.5-22.9 4.6-10.7 12.3-18.4 7.8-7.8 18.4-12.2 10.6-4.4 22.7-4.3 11.7 0.2 21.9 4.5 10.3 4.2 18 11.7 1.2 1.3 0.1 2.5l-10.2 13.3q-0.5 0.8-1.5 1-0.8 0-1.4-0.8-5.1-5.9-12.3-9.5-7.2-3.5-15.4-3.3-7.5 0-14.2 3.2-6.7 3.2-11.7 8.5-5 5.2-7.8 12.4-2.9 7.1-2.9 15.1 0 7.8 3 14.9 3.1 7 8.2 12.3 5.1 5.3 11.8 8.3 6.7 3 14.4 3 6.3-0.1 11.9-2.4 5.7-2.2 10.4-6 4.8-3.9 8.1-9 3.4-5.3 5-11.4h-31.2q-0.8 0-1.3-0.6-0.3-0.8 0.2-1.6l10.2-15q2.1-2.9 5.4-2.9h38q0.4 2.7 0.6 5.3 0.3 2.5 0.2 5.2-0.2 12.2-4.8 22.8-4.5 10.5-12.5 18.4-7.9 7.8-18.4 12.3-10.6 4.3-22.7 4.3-12 0-22.6-4.5-10.4-4.6-18.1-12.5-7.7-8-12-18.7-4.3-10.7-4.3-23zm135.3-55.9h16.5q0.8 0 1.2 0.7 0.7 0.5 0.7 1.3v69.2q0 4.4 1.4 8.4 1.6 3.8 4.2 7 2.7 3 6.4 5 3.7 1.9 8 2.4 4.9 0.4 9.3-1.2 4.4-1.6 7.6-4.6 3.4-3 5.3-7.2 1.9-4.3 1.9-9.1v-69.9q0-0.8 0.7-1.3 0.6-0.7 1.4-0.7h16.3q0.8 0 1.3 0.7 0.7 0.5 0.7 1.3v69.9q0 8.6-3.4 16.3-3.2 7.7-8.8 13.4-5.6 5.8-13.3 9.3-7.5 3.4-16.1 3.5-9 0.2-16.8-3.2-7.9-3.5-13.8-9.4-5.9-6.1-9.3-13.9-3.3-8-3.3-17v-68.9q0-0.8 0.4-1.3 0.7-0.7 1.5-0.7zm107.1 0.4h74.1q0.9 0 1.3 0.8 0.4 0.6-0.2 1.4l-11.8 15.5q-2.1 2.6-5.3 2.6h-39.5v25.6h40q1.9 0 1.9 1.9v16.3q0 2.1-1.9 2.1h-40v25.4h50.5q0.8 0 1.3 0.7 0.6 0.5 0.6 1.3v16.4q0 2-1.9 2h-69.1q-0.8 0-1.4-0.5-0.5-0.7-0.5-1.5v-108.1q0-0.8 0.5-1.3 0.6-0.6 1.4-0.6zm96 32.8q0-7.6 3.1-14 3.2-6.4 8.5-11 5.4-4.6 12.4-7.4 7.2-2.7 15.2-2.7 12.5 0 21.6 4.5 9.3 4.3 14 10.1 1.1 1.4-0.2 2.5l-11 11.6q-0.7 0.6-1.6 0.6-0.8 0-1.5-0.8-1.4-1.6-3.7-3.2-2-1.6-4.9-2.9-2.7-1.4-5.9-2.2-3.2-0.8-6.6-0.8-4 0-7.4 1.3-3.2 1.1-5.4 3-2.2 1.9-3.5 4.5-1.3 2.5-1.3 5.4 0 4.7 3 8 3.1 3.4 9.2 4.7l15.6 3q7.7 1.4 13.5 4.6 5.9 3.1 9.7 7.4 4 4.3 6.1 9.8 2.1 5.2 2.1 11.2 0 6.4-2.7 12.6-2.6 6.2-7.9 11.2-5.1 5-12.6 8-7.5 2.9-17.3 2.9-6.9 0-12.9-1.5-6-1.4-10.9-3.6-4.8-2.4-8.5-5.2-3.7-2.8-6.1-5.6-1.1-1.1 0-2.5l10.1-13q0.5-0.8 1.3-0.8 0.9-0.1 1.6 0.5 2.2 2.1 4.9 4.3 2.8 2.1 6 3.9 3.2 1.7 6.8 2.8 3.7 1.2 7.9 1.2 8.8 0 13.4-3.9 4.7-3.8 4.7-9.9 0-4.8-3.6-8.3-3.3-3.7-10-5l-15.7-3.2q-13.5-2.7-21.5-11-8-8.3-8-21.1zm94 0q0-7.6 3.1-14 3.2-6.4 8.5-11 5.4-4.6 12.4-7.4 7.2-2.7 15.2-2.7 12.5 0 21.6 4.5 9.3 4.3 14 10.1 1.1 1.4-0.2 2.5l-11 11.6q-0.7 0.6-1.6 0.6-0.8 0-1.5-0.8-1.4-1.6-3.7-3.2-2-1.6-4.9-2.9-2.7-1.4-5.9-2.2-3.2-0.8-6.6-0.8-4 0-7.4 1.3-3.2 1.1-5.4 3-2.2 1.9-3.5 4.5-1.3 2.5-1.3 5.4 0 4.7 3 8 3.1 3.4 9.2 4.7l15.6 3q7.7 1.4 13.5 4.6 5.9 3.1 9.7 7.4 4 4.3 6.1 9.8 2.1 5.2 2.1 11.2 0 6.4-2.7 12.6-2.6 6.2-7.9 11.2-5.1 5-12.6 8-7.5 2.9-17.3 2.9-6.9 0-12.9-1.5-6-1.4-10.9-3.6-4.8-2.4-8.5-5.2-3.7-2.8-6.1-5.6-1.1-1.1 0-2.5l10.1-13q0.5-0.8 1.3-0.8 0.9-0.1 1.6 0.5 2.2 2.1 4.9 4.3 2.8 2.1 6 3.9 3.2 1.7 6.8 2.8 3.7 1.2 7.9 1.2 8.8 0 13.4-3.9 4.7-3.8 4.7-9.9 0-4.8-3.6-8.3-3.3-3.7-10-5l-15.7-3.2q-13.5-2.7-21.5-11-8-8.3-8-21.1zm136.5-14.8v-16.4q0-0.8 0.5-1.3 0.6-0.7 1.4-0.7h69.4q3.2 0 5.3 2.6l11.9 15.5q0.6 0.8 0.1 1.6-0.3 0.7-1.3 0.7h-35.6v89.7q0 1.9-2 1.9h-16.4q-2 0-2-1.9v-89.7h-29.4q-0.8 0-1.4-0.5-0.5-0.7-0.5-1.5zm101.6 92v-108.1q0-0.8 0.5-1.3 0.6-0.6 1.4-0.6h16.5q2.1 0 2.1 1.9v44h45.9v-44q0-0.8 0.5-1.3 0.6-0.6 1.4-0.6h16.6q0.8 0 1.3 0.6 0.7 0.5 0.7 1.3v108.1q0 0.8-0.7 1.5-0.5 0.5-1.3 0.5h-16.6q-0.8 0-1.4-0.5-0.5-0.7-0.5-1.5v-43.8h-45.9v43.8q0 2-2.1 2h-16.5q-0.8 0-1.4-0.5-0.5-0.7-0.5-1.5zm111.9-110h74.1q0.9 0 1.3 0.8 0.4 0.6-0.2 1.4l-11.8 15.5q-2.1 2.6-5.3 2.6h-39.5v25.6h40q1.9 0 1.9 1.9v16.3q0 2.1-1.9 2.1h-40v25.4h50.5q0.8 0 1.3 0.7 0.6 0.5 0.6 1.3v16.4q0 2-1.9 2h-69.1q-0.8 0-1.4-0.5-0.5-0.7-0.5-1.5v-108.1q0-0.8 0.5-1.3 0.6-0.6 1.4-0.6zm143.1 109.7v-108.1q0-0.8 0.5-1.3 0.6-0.7 1.4-0.7h84.5q0.8 0 1.3 0.7 0.6 0.5 0.6 1.3v23.5q0 2.2-1.4 4l-23.4 30.5q-2.1 2.6-5.3 2.6h-20.3q-1 0-1.4-0.6-0.4-0.8 0.3-1.6l30.7-40h-47v89.7q0 1.9-2.1 1.9h-16.5q-0.8 0-1.4-0.4-0.5-0.7-0.5-1.5zm106.9-109.7h16.5q2.1 0 2.1 1.9v89.7h44.8q0.9 0 1.2 0.8 0.5 0.8 0 1.5l-12 15.5q-2 2.6-5.1 2.6h-47.5q-0.8 0-1.4-0.5-0.5-0.7-0.5-1.5v-108.1q0-0.8 0.5-1.3 0.6-0.6 1.4-0.6zm66.8 109.7l82.3-107.2q2.1-2.5 5.3-2.5h15.2q1.9 0 1.9 1.9v108.1q0 2-1.9 2h-15.2q-3.2 0-5.3-2.6l-27.7-36.2-27.8 36.2q-2.1 2.6-5.3 2.6h-20.3q-0.8 0-1.3-0.7-0.5-0.8 0.1-1.6zm84.4-75.2l-16.5 21.5 16.5 21.4zm39.4 21q0-12.4 4.5-22.9 4.6-10.6 12.3-18.4 7.8-7.9 18.4-12.2 10.6-4.5 22.7-4.3 13 0.2 23.9 5.3 11 5.1 19 14.1 0.5 0.6 0.3 1.4 0 0.8-0.6 1.3l-12.7 10.7q-0.6 0.5-1.4 0.5-0.8-0.2-1.3-0.8-5.3-6.1-12.5-9.6-7.2-3.7-15.5-3.5-7.5 0.1-14.2 3.3-6.7 3.1-11.7 8.5-5 5.3-7.8 12.3-2.9 7.1-2.9 15.1 0 8 3 15 3.1 7 8.2 12.3 5.1 5.3 11.8 8.3 6.7 2.9 14.4 2.9 8-0.1 15.1-3.7 7-3.5 12.1-9.6 0.5-0.6 1.3-0.6 0.8-0.2 1.4 0.5l12.7 10.7q0.6 0.5 0.6 1.3 0.2 0.8-0.3 1.4-8.2 9.1-19.4 14.4-11.2 5.1-24.4 5-12 0-22.6-4.5-10.4-4.6-18.1-12.5-7.7-8-12-18.7-4.3-10.7-4.3-23zm120.4-55.6h74.1q0.9 0 1.3 0.8 0.4 0.7-0.2 1.5l-11.8 15.5q-2.1 2.6-5.3 2.6h-39.5v25.6h40q1.9 0 1.9 1.9v16.3q0 2.1-1.9 2.1h-40v25.4h50.5q0.8 0 1.3 0.7 0.6 0.4 0.6 1.2v16.5q0 1.9-1.9 1.9h-69.1q-0.8 0-1.4-0.4-0.5-0.7-0.5-1.5v-108.1q0-0.8 0.5-1.3 0.6-0.7 1.4-0.7z"/>
	</g>
</svg>